<?xml version="1.0" encoding="UTF-8" standalone="no"?><!DOCTYPE svg PUBLIC "-//W3C//DTD SVG 1.1//EN" "http://www.w3.org/Graphics/SVG/1.1/DTD/svg11.dtd"><svg width="100%" height="100%" viewBox="0 0 747 806" version="1.1" xmlns="http://www.w3.org/2000/svg" xmlns:xlink="http://www.w3.org/1999/xlink" xml:space="preserve" xmlns:serif="http://www.serif.com/" style="fill-rule:evenodd;clip-rule:evenodd;stroke-linejoin:round;stroke-miterlimit:2;"><path d="M623.653,354.945c-27.938,-38.117 -103.002,-125.452 -176.202,-133.01c-110.426,-11.401 -409.508,84.774 -447.451,90.536l67.852,-193.812c32.309,-92.288 133.466,-140.984 225.754,-108.675l334.429,117.08c92.288,32.309 140.983,133.466 108.674,225.755l-117.08,334.428c-32.309,92.289 -133.466,140.984 -225.754,108.675l-194.7,-68.163c-5.286,-1.288 -10.559,-2.846 -15.802,-4.682c-85.553,-29.951 199.534,-224.107 228.973,-308.197c22.88,-65.354 73.564,-110.787 211.307,-59.935Z" style="fill:url(#_Linear1);"/><defs><linearGradient id="_Linear1" x1="0" y1="0" x2="1" y2="0" gradientUnits="userSpaceOnUse" gradientTransform="matrix(627.834,337.127,-363.862,677.621,92.9261,65.8256)"><stop offset="0" style="stop-color:#05f;stop-opacity:1"/><stop offset="0.54" style="stop-color:#00aeae;stop-opacity:1"/><stop offset="1" style="stop-color:#00d28d;stop-opacity:1"/></linearGradient></defs></svg>